<?xml version="1.0" encoding="UTF-8" standalone="no"?>
<svg width="181px" height="26px" viewBox="0 0 181 26" version="1.1" xmlns="http://www.w3.org/2000/svg" xmlns:xlink="http://www.w3.org/1999/xlink" xmlns:sketch="http://www.bohemiancoding.com/sketch/ns">
    <!-- Generator: Sketch 3.1 (8751) - http://www.bohemiancoding.com/sketch -->
    <title>es_logo</title>
    <desc>Created with Sketch.</desc>
    <defs></defs>
    <g id="Page-1" stroke="none" stroke-width="1" fill="none" fill-rule="evenodd" sketch:type="MSPage">
        <g id="es_logo" sketch:type="MSLayerGroup" transform="translate(1.000000, 0.000000)">
            <path d="M-0.0666666667,0.342105263 L15.2666667,0.342105263 L15.2666667,2.12105263 L1.8,2.12105263 L1.8,9.1 L13.7333333,9.1 L13.7333333,10.8789474 L1.8,10.8789474 L1.8,18.6789474 L15.4,18.6789474 L15.4,20.4578947 L-0.0666666667,20.4578947" id="Shape" fill="#FFFFFF" sketch:type="MSShapeGroup"></path>
            <path d="M31.4666667,20.4578947 L31.4666667,18.3368421 C30.1333333,19.9105263 28.2,20.7315789 25.8,20.7315789 C23.5333333,20.7315789 21.6666667,19.9789474 20.3333333,18.5421053 C19.0666667,17.1736842 18.4666667,15.3947368 18.4666667,13.2052632 C18.4666667,11.0157895 19.0666667,9.16842105 20.3333333,7.8 C21.6666667,6.29473684 23.5333333,5.54210526 25.8666667,5.54210526 C28.2666667,5.54210526 30.0666667,6.29473684 31.4,7.86842105 L31.4,5.61052632 L33.3333333,5.61052632 L33.3333333,20.3894737 L31.4666667,20.3894737 L31.4666667,20.4578947 Z M30,8.96315789 C29,7.93684211 27.6,7.38947368 25.7333333,7.38947368 C24,7.38947368 22.6666667,7.93684211 21.6666667,9.1 C20.7333333,10.1947368 20.3333333,11.5631579 20.3333333,13.2052632 C20.3333333,14.9157895 20.8,16.2842105 21.6666667,17.3105263 C22.6,18.4052632 24,18.9526316 25.7333333,18.9526316 C27.4666667,18.9526316 28.8,18.4052632 29.8666667,17.3105263 C30.9333333,16.2157895 31.4,14.8473684 31.4,13.2052632 C31.4666667,11.4263158 31,9.98947368 30,8.96315789 L30,8.96315789 Z" id="Shape" fill="#FFFFFF" sketch:type="MSShapeGroup"></path>
            <path d="M42,9.64736842 C41.2,10.9473684 40.8,12.5894737 40.8,14.5736842 L40.8,20.4578947 L38.8666667,20.4578947 L38.8666667,5.95263158 L40.8,5.95263158 L40.8,7.93684211 C42.1333333,6.36315789 44.2,5.61052632 46.9333333,5.61052632 L46.9333333,7.38947368 C44.6,7.38947368 43,8.14210526 42,9.64736842" id="Shape" fill="#FFFFFF" sketch:type="MSShapeGroup"></path>
            <rect id="Rectangle-path" fill="#FFFFFF" sketch:type="MSShapeGroup" x="51.3333333" y="0.684210526" width="1.93333333" height="20.1157895"></rect>
            <path d="M64.4,25.7947368 C62.6666667,25.7947368 61.2,25.4526316 60.0666667,24.7684211 C58.6666667,23.8789474 57.9333333,22.3736842 57.8,20.2526316 L59.7333333,20.2526316 C59.8666667,21.5526316 60.2666667,22.5105263 61,23.1263158 C61.7333333,23.7421053 62.9333333,24.0157895 64.4666667,24.0157895 C67.9333333,24.0157895 69.6666667,22.5789474 69.6666667,19.7052632 L69.6666667,19.1578947 C68.4666667,20.4578947 66.8,21.0736842 64.6666667,21.0736842 C62.8,21.0736842 61.3333333,20.5947368 60.2,19.7052632 C59.0666667,18.6789474 58.4666667,17.3105263 58.4666667,15.5315789 L58.4666667,5.95263158 L60.4,5.95263158 L60.4,15.4631579 C60.4,17.9947368 61.8,19.2947368 64.6666667,19.2947368 C66.3333333,19.2947368 67.6,18.8157895 68.4,17.7894737 C69.2,16.9 69.6,15.6 69.6,13.9578947 L69.6,5.95263158 L71.5333333,5.95263158 L71.5333333,19.7052632 C71.5333333,23.7421053 69.1333333,25.7947368 64.4,25.7947368" id="Shape" fill="#FFFFFF" sketch:type="MSShapeGroup"></path>
            <path d="M85.6666667,20.6631579 C83.0666667,20.6631579 81.0666667,20.1842105 79.4666667,19.2947368 C77.4666667,18.1315789 76.5333333,16.3526316 76.5333333,13.8894737 L76.5333333,13 L78.4666667,13 L78.4666667,13.8210526 C78.4666667,17.2421053 80.8666667,18.9526316 85.7333333,18.9526316 C87.4,18.9526316 88.8,18.6789474 89.9333333,18.2 C91.3333333,17.5157895 92.0666667,16.5578947 92.0666667,15.2578947 C92.0666667,14.3684211 91.8,13.6842105 91.3333333,13.2052632 C90.9333333,12.7947368 90.2,12.4526316 89.1333333,12.1105263 C88.5333333,11.9052632 87.2,11.6315789 85,11.1526316 C82.5333333,10.6052632 80.8,10.1263158 79.9333333,9.64736842 C78.1333333,8.68947368 77.2,7.32105263 77.2,5.47368421 C77.2,1.98421053 79.8666667,0.205263158 85.1333333,0.205263158 C90.6666667,0.205263158 93.4666667,2.46315789 93.5333333,6.97894737 L91.6666667,6.97894737 C91.5333333,4.92631579 90.8666667,3.55789474 89.6666667,2.87368421 C88.6666667,2.32631579 87.1333333,2.05263158 85.1333333,2.05263158 C81.1333333,2.05263158 79.0666667,3.21578947 79.0666667,5.47368421 C79.0666667,6.56842105 79.6,7.45789474 80.6666667,8.00526316 C81.4,8.41578947 82.7333333,8.75789474 84.6,9.1 C88.1333333,9.78421053 90.5333333,10.4684211 91.7333333,11.1526316 C93.2,12.0421053 93.9333333,13.4105263 93.9333333,15.3263158 C93.9333333,17.2421053 92.9333333,18.6789474 91,19.6368421 C89.5333333,20.3210526 87.7333333,20.6631579 85.6666667,20.6631579" id="Shape" fill="#6BA651" sketch:type="MSShapeGroup"></path>
            <path d="M110.266667,20.4578947 L110.266667,10.8105263 C110.266667,9.57894737 109.866667,8.62105263 109.133333,8.00526316 C108.4,7.38947368 107.333333,7.04736842 106,7.04736842 C104.466667,7.04736842 103.2,7.52631579 102.333333,8.41578947 C101.466667,9.37368421 101,10.6052632 101,12.1105263 L101,20.3894737 L99.0666667,20.3894737 L99.0666667,0.273684211 L101,0.273684211 L101,7.11578947 C102.2,5.88421053 103.866667,5.2 106,5.2 C107.733333,5.2 109.2,5.61052632 110.333333,6.5 C111.6,7.45789474 112.2,8.75789474 112.2,10.5368421 L112.2,20.3894737 L110.266667,20.3894737 L110.266667,20.4578947 Z" id="Shape" fill="#6BA651" sketch:type="MSShapeGroup"></path>
            <path d="M140.333333,9.64736842 C139.533333,10.9473684 139.133333,12.5894737 139.133333,14.5736842 L139.133333,20.4578947 L137.2,20.4578947 L137.2,5.95263158 L139.133333,5.95263158 L139.133333,7.93684211 C140.466667,6.36315789 142.533333,5.61052632 145.266667,5.61052632 L145.266667,7.38947368 C142.933333,7.38947368 141.333333,8.14210526 140.333333,9.64736842" id="Shape" fill="#6BA651" sketch:type="MSShapeGroup"></path>
            <path d="M150,13.9578947 C150.266667,17.3105263 152.133333,19.0210526 155.6,19.0210526 C158.266667,19.0210526 160.066667,17.8578947 160.933333,15.6 L162.933333,15.6 C162.266667,17.6526316 161.266667,19.0210526 159.866667,19.7736842 C158.6,20.4578947 157.2,20.8 155.533333,20.8 C153.066667,20.8 151.2,20.1157895 149.933333,18.6789474 C148.733333,17.3789474 148.133333,15.5315789 148.133333,13.2736842 C148.133333,11.0842105 148.8,9.23684211 150.133333,7.8 C151.466667,6.36315789 153.333333,5.61052632 155.666667,5.61052632 C157.933333,5.61052632 159.8,6.22631579 161.133333,7.52631579 C162.533333,8.82631579 163.2,10.5368421 163.2,12.7263158 L163.2,13.9578947 L150,13.9578947 L150,13.9578947 Z M159.733333,8.89473684 C158.733333,7.93684211 157.4,7.38947368 155.733333,7.38947368 C154.2,7.38947368 152.933333,7.8 151.933333,8.62105263 C150.933333,9.44210526 150.333333,10.6052632 150.133333,12.1789474 L161.2,12.1789474 C161,10.8105263 160.533333,9.71578947 159.733333,8.89473684 L159.733333,8.89473684 Z" id="Shape" fill="#6BA651" sketch:type="MSShapeGroup"></path>
            <path d="M177.666667,20.0473684 C176.666667,20.5947368 175.333333,20.8684211 173.733333,20.8684211 C169.266667,20.8684211 167.066667,18.8157895 167.066667,14.6421053 L169.066667,14.6421053 C169.066667,16.2157895 169.466667,17.3105263 170.2,17.9947368 C170.933333,18.6789474 172.133333,19.0210526 173.8,19.0210526 C174.933333,19.0210526 175.866667,18.8157895 176.6,18.4736842 C177.466667,18.0631579 177.866667,17.3789474 177.866667,16.5578947 C177.866667,15.5315789 176.933333,14.7789474 175.133333,14.3684211 C175,14.3684211 174,14.2315789 172.266667,13.8894737 C169.266667,13.4105263 167.733333,12.1105263 167.733333,9.92105263 C167.733333,8.48421053 168.333333,7.38947368 169.533333,6.56842105 C170.6,5.88421053 171.8,5.54210526 173.266667,5.54210526 C177.533333,5.54210526 179.666667,7.38947368 179.733333,11.0842105 L177.733333,11.0842105 C177.733333,9.78421053 177.4,8.82631579 176.733333,8.21052632 C176.066667,7.66315789 174.933333,7.32105263 173.466667,7.32105263 C172.466667,7.32105263 171.6,7.52631579 170.866667,7.93684211 C170.066667,8.41578947 169.733333,9.03157895 169.733333,9.85263158 C169.733333,10.8789474 170.6,11.5631579 172.333333,11.8368421 C172.866667,11.9052632 173.866667,12.1105263 175.4,12.3842105 C178.333333,12.9315789 179.8,14.2315789 179.8,16.4210526 C179.733333,18.0631579 179.066667,19.2263158 177.666667,20.0473684" id="Shape" fill="#6BA651" sketch:type="MSShapeGroup"></path>
            <path d="M128.8,20.3894737 L128.8,18.2684211 C127.466667,19.8421053 125.533333,20.6631579 123.133333,20.6631579 C120.866667,20.6631579 119,19.9105263 117.666667,18.4736842 C116.4,17.1052632 115.8,15.3263158 115.8,13.1368421 C115.8,10.9473684 116.4,9.1 117.666667,7.73157895 C119,6.22631579 120.866667,5.47368421 123.2,5.47368421 C125.6,5.47368421 127.4,6.22631579 128.733333,7.8 L128.733333,5.54210526 L130.666667,5.54210526 L130.666667,20.3210526 L128.8,20.3210526 L128.8,20.3894737 Z M127.333333,8.89473684 C126.333333,7.86842105 124.933333,7.32105263 123.066667,7.32105263 C121.333333,7.32105263 120,7.86842105 119,9.03157895 C118.066667,10.1263158 117.666667,11.4947368 117.666667,13.1368421 C117.666667,14.8473684 118.133333,16.2157895 119,17.2421053 C119.933333,18.3368421 121.333333,18.8842105 123.066667,18.8842105 C124.8,18.8842105 126.133333,18.3368421 127.2,17.2421053 C128.266667,16.1473684 128.733333,14.7789474 128.733333,13.1368421 C128.8,11.3578947 128.333333,9.92105263 127.333333,8.89473684 L127.333333,8.89473684 Z" id="Shape" fill="#6BA651" sketch:type="MSShapeGroup"></path>
        </g>
    </g>
</svg>