<?xml version="1.0" encoding="utf-8"?>
<!-- Generator: Adobe Illustrator 16.0.0, SVG Export Plug-In . SVG Version: 6.00 Build 0)  -->
<!DOCTYPE svg PUBLIC "-//W3C//DTD SVG 1.1//EN" "http://www.w3.org/Graphics/SVG/1.1/DTD/svg11.dtd">
<svg version="1.1" id="Layer_1" xmlns="http://www.w3.org/2000/svg" xmlns:xlink="http://www.w3.org/1999/xlink" x="0px" y="0px"
	 width="627.062px" height="612px" viewBox="0 0 627.062 612" enable-background="new 0 0 627.062 612" xml:space="preserve">
<g>
	<path d="M563.713,302.966c0,139.834-113.353,253.183-253.19,253.183c-139.837,0-253.19-113.349-253.19-253.183
		c0-139.834,113.354-253.201,253.19-253.201C450.36,49.765,563.713,163.132,563.713,302.966"/>
	<path fill="#FFFFFF" d="M310.522,69.572c-128.674,0-233.384,104.703-233.384,233.38c0,128.688,104.71,233.376,233.384,233.376
		c128.691,0,233.376-104.688,233.376-233.376C543.898,174.275,439.214,69.572,310.522,69.572 M310.522,590.299
		c-158.457,0-287.336-128.903-287.336-287.347c0-158.436,128.879-287.333,287.336-287.333s287.336,128.897,287.336,287.333
		C597.858,461.396,468.979,590.299,310.522,590.299"/>
	<path fill="#C1D82F" d="M310.522,14.185c-159.217,0-288.771,129.543-288.771,288.768c0,159.231,129.554,288.778,288.771,288.778
		c159.228,0,288.789-129.547,288.789-288.778C599.312,143.728,469.75,14.185,310.522,14.185z M542.457,302.952
		c0,127.893-104.042,231.944-231.935,231.944c-127.886,0-231.938-104.052-231.938-231.944
		c0-127.889,104.052-231.934,231.938-231.934C438.415,71.018,542.457,175.063,542.457,302.952z M310.522,17.062v51.082
		c-129.476,0-234.818,105.332-234.818,234.808H24.622C24.622,145.308,152.893,17.062,310.522,17.062z"/>
	<path fill="#C1D82F" d="M187.809,232.519c-4.814,0-8.731,3.662-8.731,8.194l-0.06,36.076h24.112l0.039-12.285
		c0-5.239,3.503-8.251,7.798-8.251l70.894-0.074l-92.888,181.206h28.785l93.164-185.182v-19.684H187.809z"/>
	<path fill="#C1D82F" d="M413.941,232.625c0,0-59.977-0.042-65.402,0c-5.434,0.042-8.997-0.127-12.531,1.647
		c-5.989,3.005-7.198,9.94-7.863,15.986c-0.809,7.332-8.392,84.803-7.738,85.118l11.857,5.903c0,0,17.644-10.237,38.31-10.237
		c26.75,0,44.118,17.046,44.118,42.188c0,23.123-19.291,41.626-43.842,41.626c-28.126,0-42.693-22.405-42.693-22.405l-14.579,20.903
		c0,0,19.234,27.227,58.636,27.227c40.559,0,70.621-30.055,70.621-68.503c0-36.418-27.019-64.741-67.301-64.741
		c-18.318,0-27.578,6.37-27.578,6.37s5.112-50.206,5.112-50.237c0.368-3.761,3.515-6.685,7.184-6.685c0,0,36.563-0.007,39.618-0.007
		c3.98,0,6.733,3.574,6.833,6.674c0.096,3.09,0,13.285,0,13.285h22.695l0.057-31.504c0-6.622-5.246-10.605-8.746-11.765
		C418.499,232.721,416.204,232.59,413.941,232.625"/>
	<polygon fill="#FFFFFF" points="188.699,166.494 222.912,166.494 221.039,176.371 199.5,176.371 197.382,186.146 217.659,186.146 
		215.746,196.009 195.487,196.009 191.436,217.463 178.745,217.463 	"/>
	<path fill="#FFFFFF" d="M232.121,198.999h12.921l-2.888-19.549L232.121,198.999z M246.644,208.212h-19.185l-4.762,9.251h-12.695
		l27.136-51.043h14.161l8.498,51.043h-11.789L246.644,208.212z"/>
	<polygon fill="#FFFFFF" points="302.773,166.469 343.007,166.455 340.988,176.615 326.926,176.615 320.24,217.318 308.999,217.318 
		315.617,176.615 301.172,176.619 	"/>
	<path fill="#FFFFFF" d="M409.081,189.772c2.867,0,5.056-0.714,6.529-2.131c1.492-1.432,2.234-3.524,2.234-6.282
		c0-1.195-0.587-2.881-2.305-3.984c-1.599-1.021-4.179-1.015-8.159-1.015c-3.16,0-4.214,0.053-4.214,0.053l-1.901,13.359H409.081z
		 M400.184,199.098l-2.588,18.397l-11.963-0.042l7.883-50.892h20.532c5.401,0,9.495,1.071,12.267,3.224
		c2.811,2.156,4.214,5.324,4.214,9.509c0,4.235-1.11,7.707-3.315,10.45c-2.185,2.733-5.176,4.292-8.923,4.702
		c1.722,0.367,3.164,1.304,4.288,2.786c1.142,1.481,2.146,3.747,2.994,6.819l3.659,13.444h-12.617l-3.153-11.588
		c-0.771-2.587-1.658-4.383-2.722-5.352c-1.071-0.969-2.612-1.457-4.646-1.457H400.184z"/>
	<path fill="#FFFFFF" d="M284.809,166.494c-8.947,0-17.1,3.797-18.758,13.239c-0.007,0.042-3.58,21.041-3.609,21.31
		c-0.205,2.139-0.145,4.179,0.039,6.441c0.178,1.796,1.086,3.669,2.153,5.115c1.075,1.372,2.364,2.454,3.906,3.228
		c3.182,1.623,7.232,1.669,11.817,1.715c0.732,0,10.994,0,10.994,0l1.057-10.206c-0.66,0-16.187,0.131-16.879-0.042
		c-1.055-0.261-1.69-1.025-2.051-1.919c-0.389-0.873-0.1-2.287,0.061-3.245c0.018-0.032,4.195-23.342,4.195-23.342
		c0.283-1.704,1.541-2.178,3.143-2.167c3.16,0.06,15.982,0.018,15.982,0.018l1.835-10.125
		C298.694,166.512,287.092,166.494,284.809,166.494"/>
	<path fill="#FFFFFF" d="M372.779,203.796c-0.438,2.17-1.63,3.581-3.609,3.574c-0.676,0-3.786,0.032-7.611,0.032
		c-4.15,0-7.819-0.032-8.509-0.032c-1.934,0.007-2.804-1.576-2.472-3.574c0.262-1.63,1.651-10.832,2.157-14.144
		c0.626-3.761,1.347-8.148,1.583-9.329c0.39-2.266,1.57-3.715,3.454-3.793c0.039,0,3.8-0.05,8.177-0.05
		c4.369-0.007,8.088,0.042,8.088,0.042c1.984,0,2.801,1.379,2.489,3.535c0,0-0.891,6.498-1.796,12.896
		C373.832,199.342,372.779,203.796,372.779,203.796 M360.018,217.644c4.879-0.05,11.613-0.474,15.992-3.153
		c4.091-2.521,6.354-6.356,7.251-12.394l3.221-20.345c0.799-6.059-0.039-9.859-3.358-12.373c-3.766-2.885-11.064-3.167-16.004-3.167
		l-0.01,0.018c-4.89,0.046-11.603,0.488-15.982,3.15c-4.107,2.535-6.335,6.359-7.25,12.39l-3.211,20.327
		c-1.008,6.038,0.008,9.874,3.303,12.394c3.538,2.679,10.152,3.104,15.01,3.153"/>
</g>
</svg>
